<svg id="visual" viewBox="0 0 960 540" width="960" height="540" xmlns="http://www.w3.org/2000/svg" xmlns:xlink="http://www.w3.org/1999/xlink" version="1.1"><rect x="0" y="0" width="960" height="540" fill="#f7f7f7"></rect><defs><linearGradient id="grad1_0" x1="43.8%" y1="0%" x2="100%" y2="100%"><stop offset="14.444444444444446%" stop-color="#f7f7f7" stop-opacity="1"></stop><stop offset="85.55555555555554%" stop-color="#f7f7f7" stop-opacity="1"></stop></linearGradient></defs><defs><linearGradient id="grad2_0" x1="0%" y1="0%" x2="56.3%" y2="100%"><stop offset="14.444444444444446%" stop-color="#f7f7f7" stop-opacity="1"></stop><stop offset="85.55555555555554%" stop-color="#f7f7f7" stop-opacity="1"></stop></linearGradient></defs><g transform="translate(960, 0)"><path d="M0 270C-43.4 256.7 -86.7 243.4 -128.5 222.6C-170.3 201.7 -210.5 173.4 -233.8 135C-257.1 96.6 -263.6 48.3 -270 0L0 0Z" fill="#2735E0"></path></g><g transform="translate(0, 540)"><path d="M0 -270C61.3 -271 122.5 -272.1 135 -233.8C147.5 -195.6 111.2 -118 125.6 -72.5C139.9 -27 205 -13.5 270 0L0 0Z" fill="#2735E0"></path></g></svg>