<svg width="1080" height="1080" viewBox="0 0 1080 1080" fill="none" xmlns="http://www.w3.org/2000/svg">
<rect width="1080" height="1080" fill="white"/>
<path fill-rule="evenodd" clip-rule="evenodd" d="M448.455 614.93L585.169 609.947L599.685 837.875C600.985 857.158 591.668 873.841 579.752 873.841H453.655C441.738 873.841 432.422 857.158 433.722 837.875L448.455 614.93ZM594.701 838.092L580.402 615.146L453.005 619.697L438.705 838.092C438.055 848.708 440.872 859.324 446.288 864.958C447.189 866.054 448.31 866.948 449.58 867.583C450.849 868.217 452.237 868.578 453.655 868.641H579.752C581.169 868.578 582.558 868.218 583.827 867.583C585.096 866.948 586.218 866.054 587.118 864.958C592.318 859.324 595.352 848.708 594.701 838.092Z" fill="#1C85E8"/>
<path fill-rule="evenodd" clip-rule="evenodd" d="M570.002 614.93L706.716 609.947L721.232 837.875C722.532 857.158 713.216 873.841 701.299 873.841H575.202C563.286 873.841 553.969 857.158 555.269 837.875L570.002 614.93ZM716.249 838.092L701.949 615.146L574.552 619.697L560.253 838.092C559.602 848.708 562.419 859.324 567.836 864.958C568.736 866.054 569.858 866.948 571.127 867.583C572.396 868.218 573.784 868.578 575.202 868.641H701.299C702.717 868.578 704.105 868.217 705.374 867.583C706.644 866.948 707.765 866.054 708.666 864.958C713.866 859.324 716.899 848.708 716.249 838.092Z" fill="#1C85E8"/>
<path d="M429.822 599.764C429.706 603.206 430.145 606.644 431.122 609.947H634.784C706.066 609.947 704.549 577.231 711.482 532.165C719.716 477.783 753.515 352.552 758.931 310.086H738.999C733.365 310.303 727.948 310.52 722.965 310.953C691.333 313.553 670.75 321.787 661 348.652C658.898 354.483 657.374 360.506 656.45 366.635C646.917 424.051 634.567 480.816 624.818 534.765C624.168 538.015 623.518 541.048 622.868 543.865C612.251 590.664 591.235 599.33 561.552 599.33H429.822V599.764Z" fill="#1C85E8"/>
<path d="M431.122 609.947C433.722 617.746 440.439 624.246 457.772 624.246H661.867C733.149 624.246 731.632 591.531 738.565 546.465C746.365 494.899 763.698 360.786 768.681 321.136C768.84 319.756 768.707 318.358 768.291 317.033C767.874 315.707 767.184 314.484 766.265 313.442C765.346 312.4 764.218 311.563 762.955 310.985C761.691 310.407 760.321 310.101 758.931 310.086H758.715C753.852 310.097 749.161 311.888 745.528 315.122C741.895 318.355 739.573 322.807 738.999 327.636C732.282 380.068 718.849 484.066 711.482 532.382C704.549 577.447 706.066 610.163 634.784 610.163H433.722C432.868 609.984 431.994 609.911 431.122 609.947Z" fill="#5661AE"/>
<path d="M504.331 545.443C504.331 545.443 472.797 517.917 447.159 541.309C421.52 564.7 315.594 725.335 315.594 725.335L347.632 747.49L467.788 612.363L488.703 646.028L504.331 545.443Z" fill="#FCBA9F"/>
<path fill-rule="evenodd" clip-rule="evenodd" d="M482.876 852.806C496.084 843.155 509.698 833.205 524.035 829.993C524.358 829.919 524.693 829.916 525.017 829.985C525.341 830.054 525.646 830.192 525.911 830.39C526.177 830.588 526.396 830.842 526.553 831.133C526.711 831.424 526.803 831.747 526.824 832.077L528.394 858.676C528.427 859.224 528.26 859.764 527.924 860.199C527.589 860.633 527.107 860.93 526.569 861.037L428.36 880.448C421.119 881.879 416.474 878.73 414.247 873.138C414.174 872.945 414.158 872.735 414.202 872.533C414.245 872.332 414.346 872.147 414.492 872.001C414.638 871.855 414.822 871.754 415.024 871.71C415.226 871.666 415.436 871.682 415.629 871.754C428.529 876.494 442.773 875.997 455.311 870.369C464.37 866.33 473.521 859.643 482.876 852.806Z" fill="#5661AE"/>
<path fill-rule="evenodd" clip-rule="evenodd" d="M513.015 765.663C513.015 765.663 514.874 807.643 515.854 811.914C516.529 814.248 517.374 816.53 518.383 818.74C520.066 822.753 521.941 827.223 522.113 830.473C508.481 834.104 495.493 843.593 482.877 852.81C473.522 859.645 464.372 866.33 455.313 870.369C443.379 875.724 429.878 876.445 417.442 872.39C415.735 865.134 420.691 857.099 433.196 853.481C455.609 846.995 467.856 842.884 475.671 824.137C481.225 810.816 471.923 764.439 471.923 764.439L513.015 765.663Z" fill="#FFCCB3"/>
<path fill-rule="evenodd" clip-rule="evenodd" d="M476.653 817.05C481.06 816.779 498.57 815.626 515.335 813.434C518.593 813.009 521.501 819.128 520.109 823.02C519.198 825.862 518.518 828.773 518.076 831.724C512.606 833.724 507.358 836.284 502.415 839.364C503.429 832.428 499.198 829.357 492.913 829.674C487.949 829.924 476.735 833.077 470.953 834.788C470.636 834.882 470.298 834.882 469.98 834.79C469.661 834.698 469.376 834.517 469.158 834.268C468.939 834.019 468.797 833.712 468.747 833.385C468.697 833.058 468.742 832.723 468.876 832.42L475.172 818.086C475.299 817.793 475.505 817.542 475.766 817.359C476.028 817.177 476.335 817.07 476.653 817.05Z" fill="white"/>
<path fill-rule="evenodd" clip-rule="evenodd" d="M430.281 874.865C441.689 875.758 448.591 872.792 448.591 872.792L444 849.565L426.148 853.958L430.281 874.865Z" fill="white"/>
<path fill-rule="evenodd" clip-rule="evenodd" d="M287.216 768.951C303.529 770.167 320.345 771.42 333.342 778.27C333.636 778.423 333.893 778.639 334.095 778.901C334.297 779.163 334.44 779.466 334.513 779.789C334.586 780.112 334.589 780.447 334.52 780.771C334.451 781.095 334.312 781.4 334.114 781.665L318.063 802.933C317.732 803.371 317.255 803.675 316.718 803.787C316.181 803.9 315.621 803.815 315.142 803.547L227.79 754.646C221.349 751.041 219.854 745.632 221.785 739.93C221.855 739.736 221.979 739.566 222.143 739.441C222.307 739.315 222.503 739.24 222.709 739.223C222.915 739.207 223.121 739.25 223.302 739.347C223.484 739.445 223.634 739.593 223.734 739.773C230.482 751.746 241.648 760.603 254.843 764.448C264.358 767.247 275.661 768.09 287.216 768.951Z" fill="#5661AE"/>
<path fill-rule="evenodd" clip-rule="evenodd" d="M366.664 722.151L338.836 759.203C337.836 761.417 337 763.702 336.336 766.039C335.015 770.185 333.543 774.804 331.568 777.389C318.835 771.315 302.795 770.118 287.214 768.955C275.66 768.092 264.359 767.249 254.844 764.449C242.286 760.788 231.541 752.583 224.703 741.433C228.108 734.802 237.09 731.899 248.957 737.252C270.225 746.846 282.215 751.658 300.319 742.454C303.236 740.736 305.851 738.55 308.058 735.983L336.174 694.575L366.664 722.151Z" fill="#FCBA9F"/>
<path fill-rule="evenodd" clip-rule="evenodd" d="M305.662 737.694C309.193 740.345 323.271 750.822 337.455 760.023C340.211 761.811 338.458 768.355 334.875 770.416C332.338 771.989 329.933 773.764 327.683 775.724C322.222 773.7 316.567 772.246 310.807 771.386C316.075 766.763 314.846 761.682 309.856 757.848C305.915 754.819 295.333 749.948 289.822 747.503C289.519 747.368 289.261 747.15 289.079 746.873C288.896 746.597 288.797 746.274 288.792 745.942C288.787 745.611 288.877 745.286 289.052 745.004C289.226 744.722 289.477 744.496 289.776 744.353L303.863 737.522C304.149 737.383 304.469 737.325 304.787 737.355C305.104 737.385 305.407 737.503 305.662 737.694Z" fill="white"/>
<path fill-rule="evenodd" clip-rule="evenodd" d="M232.872 751.641C240.978 759.718 248.155 761.935 248.155 761.935L259.72 741.276L243.282 733.045L232.872 751.641Z" fill="white"/>
<path d="M547.574 525.471L464.428 540.242L480.794 606.059H534.053C534.053 606.059 559.369 551.641 547.574 525.471Z" fill="#FFCCB3"/>
<path d="M475.084 605.415C493.562 605.415 508.541 590.436 508.541 571.957C508.541 553.479 493.562 538.5 475.084 538.5C456.606 538.5 441.626 553.479 441.626 571.957C441.626 590.436 456.606 605.415 475.084 605.415Z" fill="#FFCCB3"/>
<path d="M442.041 577.229L475.521 786.857L514.136 788.468L509.627 581.251L442.041 577.229Z" fill="#FFCCB3"/>
<path d="M494.489 531.237C494.489 531.237 507.303 535.183 512.593 556.082C517.882 576.981 512.111 606.059 512.111 606.059H520.35C520.35 606.059 549.73 571.556 528.114 527.584L494.489 531.237Z" fill="#FF967C"/>
<path d="M668.305 504.731C668.305 504.731 678.488 554.56 665.144 575.382C648.254 601.738 627.596 605.775 612.329 606.059H512.111C512.111 606.059 511.926 543.534 462.553 532.852C462.553 532.852 625.046 487.595 668.305 504.731Z" fill="#1F2D49"/>
<path d="M670.551 519.241L564.34 522.738L565.47 515.319L586.167 512.926H670.403L670.551 519.241Z" fill="#0D1B33"/>
<path d="M424.866 470.87C424.866 470.87 409.366 478.938 397.486 475.117C397.486 475.117 379.687 484.879 376.928 483.733C372.403 481.692 375.447 477.218 375.447 477.218C375.447 477.218 363.752 481.656 361.101 470.455C357.268 454.766 378.668 449.412 388.835 447.312C398.812 445.001 422.904 450.045 422.904 450.045L424.866 470.87Z" fill="#FFCCB3"/>
<path d="M375.647 477.228L388.628 471.247" stroke="#FF967C" stroke-width="2.00961" stroke-linecap="round" stroke-linejoin="round"/>
<path d="M367.835 468.583C367.835 468.583 382.472 461.678 385.724 461.039" stroke="#FF967C" stroke-width="2.00961" stroke-linecap="round" stroke-linejoin="round"/>
<path d="M365.402 461.014C371.148 457.53 377.384 454.929 383.903 453.3" stroke="#FF967C" stroke-width="2.00961" stroke-linecap="round" stroke-linejoin="round"/>
<path d="M547.046 248.544C547.046 248.544 548.176 259.815 552.081 285.298C555.986 310.781 542.97 335.945 537.33 339.416C531.69 342.887 550.841 352.203 569.645 347.659C588.448 343.115 601.106 336.379 604.143 328.136C607.18 319.892 579.322 234.897 547.046 248.544Z" fill="#080B09"/>
<path d="M558.616 312.802C565.937 312.802 571.873 306.867 571.873 299.546C571.873 292.225 565.937 286.29 558.616 286.29C551.295 286.29 545.36 292.225 545.36 299.546C545.36 306.867 551.295 312.802 558.616 312.802Z" stroke="#FEBB94" stroke-miterlimit="10"/>
<path d="M596.361 304.233L588.448 343.115C588.448 343.115 586.579 349.705 594.876 350.703C603.173 351.701 620.864 349.471 627.183 342.738C633.501 336.005 631.291 332.669 631.291 332.669L617.89 278.776L596.361 304.233Z" fill="#FFCCB3"/>
<path d="M595.309 308.721L608.222 299.108L590.344 333.803L595.309 308.721Z" fill="#FF967C"/>
<path d="M557.275 244.975C557.275 244.975 552.434 282.831 566.47 303.877C575.623 317.602 587.036 317.312 608.221 299.108C627.646 282.417 631.235 272.926 631.235 272.926L623.896 234.322C623.896 234.322 563.377 210.729 557.275 244.975Z" fill="#FFCCB3"/>
<path d="M521.434 406.126L509.818 424.661C508.16 427.308 505.959 429.572 503.361 431.306C500.764 433.039 497.828 434.202 494.747 434.717L412.19 448.53V469.416H513.954C519.687 469.416 525.333 468.009 530.395 465.318C535.458 462.627 539.783 458.735 542.99 453.983L568.013 416.907L521.434 406.126Z" fill="#FFCCB3"/>
<path d="M514.169 417.718C514.169 417.718 540.709 423.03 549.653 444.109L561.501 424.081L516.737 413.62L514.169 417.718Z" fill="#FF967C"/>
<path d="M573.17 335.726C573.17 335.726 548.203 344.677 541.646 353.661C536.544 360.651 521.269 392.445 514.742 406.211C514.372 406.992 514.177 407.845 514.172 408.709C514.167 409.574 514.352 410.429 514.713 411.214C515.074 412 515.603 412.697 516.263 413.255C516.923 413.814 517.697 414.222 518.531 414.449L555.213 424.453L573.17 335.726Z" fill="#FEBB94"/>
<path d="M548.002 375.29C548.002 375.29 533.217 401.338 531.646 418.026L545.532 422.236L548.002 375.29Z" fill="#FF967C"/>
<path d="M593.852 328.741C593.852 328.741 566.372 337.339 562.486 340.448C558.601 343.556 554.911 368.924 548.306 380.969C541.701 393.014 532.829 411.95 546.943 432.371C561.058 452.791 561.133 473.147 561.133 473.147L556.468 511.889L654.832 520.858C659.376 520.996 669.034 508.926 668.624 504.398C667.273 489.463 665.585 485.089 665.099 461.308C664.442 429.077 681.614 333.804 681.614 333.804L631.236 323.465C620.563 325.305 593.852 328.741 593.852 328.741Z" fill="white"/>
<path d="M587.008 330.946C587.008 330.946 588.424 321.323 592.948 320.646C597.473 319.968 625.121 315.81 629.421 317.62C633.722 319.431 638.927 330.946 638.927 330.946C638.927 330.946 630.1 352.476 617.425 353.608C604.751 354.739 582.935 350.832 585.242 342.827C587.549 334.822 587.008 330.946 587.008 330.946Z" fill="white"/>
<path d="M587.008 330.945C587.008 330.945 577.542 361.104 575.239 382.985C572.935 404.866 580.797 435.66 581.526 450.856C582.255 466.052 576.758 521.484 576.758 521.484H540.183C540.183 521.484 557.377 464.97 554.271 449.91C551.166 434.85 537.848 424.534 538.276 409.024C538.703 393.513 557.906 351.915 557.906 351.915C558.814 347.874 560.36 344.002 562.486 340.447C562.486 340.447 571.706 335.405 587.008 330.945Z" fill="#FEBB94"/>
<path d="M678.053 332.843L634.325 319.44C634.325 319.44 629.814 345.243 624.819 359.783C619.824 374.323 613.068 399.539 616.75 417.741C620.432 435.943 626.356 476.144 621.361 491.897C616.366 507.65 612 520.714 612 520.714L675.132 521.484C675.132 521.484 669.589 493.854 669.166 491.862C668.743 489.87 661.927 466.692 665.093 445.427C668.259 424.162 674.948 386.896 674.948 386.896L678.053 332.843Z" fill="#FEBB94"/>
<path d="M621.058 413.149C622.139 413.149 623.016 412.272 623.016 411.191C623.016 410.109 622.139 409.232 621.058 409.232C619.976 409.232 619.1 410.109 619.1 411.191C619.1 412.272 619.976 413.149 621.058 413.149Z" fill="white"/>
<path d="M623.016 430.659C624.097 430.659 624.974 429.782 624.974 428.7C624.974 427.619 624.097 426.742 623.016 426.742C621.934 426.742 621.058 427.619 621.058 428.7C621.058 429.782 621.934 430.659 623.016 430.659Z" fill="white"/>
<path d="M581.894 332.653C581.894 332.653 584.952 351.223 601.562 350.93C618.172 350.637 642.308 325.722 642.308 325.722" stroke="white" stroke-width="0.73719" stroke-miterlimit="10"/>
<path d="M649.022 364.554C649.022 364.554 644.401 375.902 649.263 386.913C654.73 399.294 661.774 429.842 638.993 433.177C611.07 437.265 623.162 441.638 636.106 444.766C649.05 447.895 643.75 447.898 643.75 461.308C643.75 470.851 670.485 488.605 667.683 481.379C652.65 442.606 692.616 391.143 649.022 364.554Z" fill="#FF967C"/>
<path d="M570.37 295.216L583.362 292.232C583.356 292.352 583.346 292.489 583.331 292.638C583.268 293.261 583.108 294.101 582.728 294.977C581.981 296.699 580.361 298.611 576.765 299.247C574.481 299.44 572.833 298.334 571.728 297.133C571.174 296.53 570.767 295.912 570.497 295.443C570.451 295.362 570.408 295.286 570.37 295.216Z" fill="#E56441" stroke="#E56441"/>
<path d="M561.949 276.664C563.462 276.646 564.668 274.824 564.642 272.593C564.616 270.363 563.368 268.569 561.854 268.587C560.341 268.604 559.135 270.427 559.161 272.657C559.187 274.888 560.435 276.682 561.949 276.664Z" fill="#080B09"/>
<path d="M584.314 276.722C585.828 276.705 587.034 274.882 587.007 272.651C586.981 270.421 585.733 268.627 584.22 268.645C582.706 268.662 581.5 270.485 581.526 272.716C581.552 274.946 582.801 276.74 584.314 276.722Z" fill="#080B09"/>
<path d="M556.385 263.365L567.761 263.419C567.955 263.403 568.136 263.319 568.272 263.18C568.407 263.041 568.488 262.858 568.499 262.664C568.454 262.318 568.339 261.986 568.161 261.686C567.983 261.386 567.746 261.125 567.465 260.919C567.184 260.713 566.864 260.567 566.524 260.488C566.185 260.409 565.833 260.4 565.489 260.461L556.183 262.062C555.438 262.071 555.453 263.376 556.385 263.365Z" fill="#080B09"/>
<path d="M594.898 262.203L579.804 263.311C579.813 262.85 579.919 262.396 580.114 261.979C580.309 261.561 580.59 261.189 580.938 260.886C581.286 260.583 581.693 260.357 582.134 260.221C582.574 260.085 583.039 260.043 583.497 260.098L595.073 261.268C595.446 261.264 595.457 262.196 594.898 262.203Z" fill="#080B09"/>
<path d="M571.173 271.39L566.979 282.415L570.545 285.299" stroke="#E56441" stroke-width="1.21616" stroke-linecap="round"/>
<path d="M565.335 239.231C565.335 239.231 570.88 255.389 587.032 259.418C587.032 259.418 594.653 270.859 610.666 269.535C610.666 269.535 606.503 258.216 613.771 256.297C626.113 253.036 625.332 273.374 617.891 278.776C612.834 282.447 612.232 322.912 638.927 330.945C662.859 338.147 702.547 315.435 686.457 307.883C633.093 282.833 640.488 245.816 633.658 232.152C622.052 208.933 589.67 209.311 583.625 211.884C583.625 211.884 555.044 210.24 548.299 238.785C542.532 263.187 557.033 272.684 557.033 272.684L557.98 252.148C557.98 252.148 561.107 253.243 565.335 239.231Z" fill="#080B09"/>
<path d="M600.666 364.553C602.028 364.553 603.132 361.504 603.132 357.742C603.132 353.979 602.028 350.93 600.666 350.93C599.305 350.93 598.201 353.979 598.201 357.742C598.201 361.504 599.305 364.553 600.666 364.553Z" fill="white"/>
<path d="M665.387 349.023C665.387 349.023 691.493 336.453 696.398 344.527C706.611 360.661 723.077 400.506 728.559 413.587C728.779 414.147 728.886 414.744 728.873 415.346C728.861 415.947 728.73 416.541 728.488 417.091C728.245 417.642 727.896 418.139 727.46 418.554C727.025 418.969 726.511 419.293 725.949 419.509L685.674 435.185C684.12 435.804 682.387 435.804 680.832 435.185C679.277 434.565 678.018 433.374 677.314 431.856L649.263 371.099L665.387 349.023Z" fill="#FEBB94"/>
<path d="M674.005 386.913C688.989 386.913 701.135 374.766 701.135 359.783C701.135 344.8 688.989 332.653 674.005 332.653C659.022 332.653 646.875 344.8 646.875 359.783C646.875 374.766 659.022 386.913 674.005 386.913Z" fill="#FEBB94"/>
<path d="M736.298 451.121L699.589 465.266L689.021 438.89L687.268 434.728L724.959 419.945L726.741 424.91L736.298 451.121Z" fill="#FFCCB3"/>
<path d="M726.741 424.911C716.817 428.674 697.552 435.577 689.021 438.89L687.268 434.728L724.758 419.953L726.741 424.911Z" fill="#FF967C"/>
<path d="M718.154 478.287C729.031 478.287 737.849 469.47 737.849 458.593C737.849 447.716 729.031 438.899 718.154 438.899C707.277 438.899 698.46 447.716 698.46 458.593C698.46 469.47 707.277 478.287 718.154 478.287Z" fill="#FFCCB3"/>
<path d="M596.784 464.445C596.784 464.445 580.626 471.1 569.134 466.236C569.134 466.236 550.536 474.374 547.89 472.987C543.565 470.552 546.995 466.367 546.995 466.367C546.995 466.367 534.952 469.746 533.309 458.353C530.888 442.386 552.679 438.958 562.993 437.771C573.136 436.358 596.683 443.528 596.683 443.528L596.784 464.445Z" fill="#FFCCB3"/>
<path d="M542.443 436.707L564.044 437.514L543.226 444.122C543.226 444.122 535.801 440.642 539.262 437.679C540.17 436.981 541.3 436.635 542.443 436.707Z" fill="#FFCCB3"/>
<path d="M547.194 466.395L560.656 461.593" stroke="#FF967C" stroke-width="2.00961" stroke-linecap="round" stroke-linejoin="round"/>
<path d="M540.184 457.088C540.184 457.088 555.377 451.515 558.673 451.167" stroke="#FF967C" stroke-width="2.00961" stroke-linecap="round" stroke-linejoin="round"/>
<path d="M538.434 449.333C544.467 446.374 550.91 444.339 557.548 443.297" stroke="#FF967C" stroke-width="2.00961" stroke-linecap="round" stroke-linejoin="round"/>
<path d="M717.687 438.842C717.687 438.842 595.151 444.327 586.848 442.752C578.746 441.206 596.784 464.445 596.784 464.445L714.045 477.7L717.687 438.842Z" fill="#FFCCB3"/>
<path d="M701.004 200H707.004" stroke="#5CA4E6" stroke-miterlimit="10"/>
<path d="M622.037 299.77C629.358 299.77 635.293 293.834 635.293 286.513C635.293 279.192 629.358 273.257 622.037 273.257C614.715 273.257 608.78 279.192 608.78 286.513C608.78 293.834 614.715 299.77 622.037 299.77Z" stroke="#FEBB94" stroke-miterlimit="10"/>
</svg>
