<?xml version="1.0" encoding="utf-8"?>
<!-- Generator: Adobe Illustrator 22.1.0, SVG Export Plug-In . SVG Version: 6.00 Build 0)  -->
<svg version="1.1" id="Camada_1" xmlns="http://www.w3.org/2000/svg" xmlns:xlink="http://www.w3.org/1999/xlink" x="0px" y="0px"
	 viewBox="0 0 1920 1080" style="enable-background:new 0 0 1920 1080;" xml:space="preserve">
<style type="text/css">
	.st0{fill:#FFFFFF;}
	.st1{clip-path:url(#SVGID_2_);fill:none;stroke:#FFFFFF;stroke-miterlimit:10;}
	.st2{fill:#040C28;}
	.st3{fill:#2BD684;}
	.st4{fill:#2AB2DB;}
	.st5{fill:#5724E2;}
	.st6{fill:#2735E0;}
	.st7{fill:#287ADD;}
	.st8{clip-path:url(#SVGID_4_);fill:none;stroke:#287ADD;stroke-width:8;stroke-miterlimit:10;}
</style>
<rect x="0.5" class="st0" width="1919.5" height="1079.5"/>
<g>
	<defs>
		<rect id="SVGID_1_" width="1920" height="1080"/>
	</defs>
	<clipPath id="SVGID_2_">
		<use xlink:href="#SVGID_1_"  style="overflow:visible;"/>
	</clipPath>
	<rect x="0.5" y="-0.5" class="st1" width="1920" height="1080"/>
</g>
<g>
	<path class="st2" d="M242.5,611.7V429.9h133c8.8,0,16.9,1,24.1,3s13.5,5,18.6,8.9c5.2,3.9,9.2,8.8,12,14.8
		c2.8,5.9,4.3,12.7,4.3,20.4c0,5.8-0.7,10.9-2,15.3c-1.3,4.3-3.2,8-5.5,11.1c-2.3,3.1-5,5.7-8.1,7.8c-3.1,2.1-6.3,3.6-9.6,4.6
		c8.3,2.7,15.2,7.5,20.5,14.5c5.3,7,8,15.8,8,26.5c0,8.3-1.4,15.9-4.1,22.6s-6.7,12.5-11.8,17.4c-5.1,4.8-11.3,8.5-18.5,11.1
		c-7.3,2.6-15.3,3.9-24.1,3.9H242.5z M297.3,532.7v-26.8h78.5c9,0,15.7-1.7,20-5c4.3-3.3,6.5-9,6.5-17c0-4.8-0.9-8.7-2.8-11.6
		c-1.8-2.9-4.5-5.2-7.9-6.8c-3.4-1.6-7.5-2.6-12.3-3.1s-10-0.8-15.9-0.8h-89.3v118.5h92c5.7,0,10.9-0.4,15.8-1.3
		c4.8-0.8,9-2.2,12.5-4.1c3.5-1.9,6.2-4.4,8.1-7.4c1.9-3,2.9-6.8,2.9-11.3c0-7.5-2.3-13.3-7-17.4c-4.7-4.1-11.5-6.1-20.5-6.1H297.3z
		"/>
</g>
<g>
	<path class="st2" d="M628,611.7V429.9h154.3v31.8H659.5v150H628z M682.8,536.4v-27.8h92v27.8H682.8z"/>
</g>
<g>
	<path class="st2" d="M973,611.7l-46-50.5h-68v-28h75.8c11.5,0,20.2-3.1,26-9.4c5.8-6.3,8.8-15.3,8.8-27.1c0-11.8-3-20.6-9.1-26.4
		c-6.1-5.8-14.6-8.6-25.6-8.6h-99v150h-31.5V429.9h130.5c10.3,0,19.6,1.5,27.7,4.6c8.2,3.1,15.1,7.5,20.8,13.3
		c5.7,5.8,10,12.7,13,20.9c3,8.2,4.5,17.3,4.5,27.5c0,15.2-3.3,27.9-9.9,38.1c-6.6,10.3-15.8,17.6-27.6,22.1l54.8,55.3H973z"/>
	<path class="st2" d="M1113.5,611.7c-12.7,0-24.4-2.4-35.1-7.1s-20.1-11.3-28-19.5c-7.9-8.3-14.1-18-18.5-29.4
		c-4.4-11.3-6.6-23.6-6.6-36.8c0-13.3,2.2-25.5,6.6-36.5c4.4-11,10.6-20.4,18.5-28.1c7.9-7.8,17.3-13.8,28-18s22.5-6.4,35.1-6.4
		h44.3c13.2,0,25.2,2.2,36.1,6.5c10.9,4.3,20.3,10.4,28.1,18.3c7.8,7.8,13.9,17.2,18.3,28.1c4.3,10.9,6.5,23,6.5,36.1
		c0,13.2-2.2,25.4-6.6,36.8c-4.4,11.3-10.6,21.1-18.5,29.4c-7.9,8.3-17.3,14.8-28.1,19.5c-10.8,4.8-22.8,7.1-35.8,7.1H1113.5z
		 M1157.7,579.9c8.3,0,16-1.5,23-4.5s13-7.1,18.1-12.4c5.1-5.3,9-11.5,11.9-18.9c2.8-7.3,4.3-15.3,4.3-23.8s-1.4-16.4-4.3-23.6
		c-2.8-7.3-6.8-13.5-11.9-18.6c-5.1-5.2-11.1-9.2-18.1-12.1c-7-2.9-14.7-4.4-23-4.4h-44.3c-8.2,0-15.7,1.5-22.6,4.4
		c-6.9,2.9-12.9,7-17.9,12.1c-5,5.2-8.9,11.3-11.8,18.5c-2.8,7.2-4.3,15.1-4.3,23.8c0,8.5,1.4,16.4,4.3,23.8
		c2.8,7.3,6.8,13.6,11.8,18.9s11,9.4,17.9,12.4c6.9,3,14.5,4.5,22.6,4.5H1157.7z"/>
	<path class="st2" d="M1272.5,611.7v-31.8h136.3c8.5,0,15-2.2,19.6-6.5c4.6-4.3,6.9-10.1,6.9-17.3c0-7.8-2.3-13.7-6.9-17.6
		c-4.6-3.9-11.1-5.9-19.6-5.9h-83.5c-8.5,0-16.2-1.3-23.1-3.9c-6.9-2.6-12.8-6.2-17.5-10.8c-4.8-4.6-8.4-10-11-16.4
		c-2.6-6.3-3.9-13.3-3.9-20.8c0-7.3,1.2-14.1,3.6-20.4c2.4-6.3,6-11.6,10.8-16.1s10.6-8,17.6-10.6c7-2.6,15-3.9,24-3.9h130.5v31.8
		h-130.5c-7.3,0-13,2-17,5.9c-4,3.9-6,9.4-6,16.4s2,12.4,6.1,16.3c4.1,3.8,9.6,5.8,16.6,5.8h83.3c18.5,0,32.5,4.3,42.1,13
		c9.6,8.7,14.4,21.8,14.4,39.5c0,7.7-1.2,14.8-3.5,21.3c-2.3,6.5-5.8,12.1-10.5,16.9c-4.7,4.8-10.5,8.5-17.6,11.1
		c-7.1,2.7-15.4,4-24.9,4H1272.5z"/>
	<path class="st2" d="M1550.7,611.7v-150h-69v-31.8h169.8v31.8h-69v150H1550.7z"/>
</g>
<g>
	<path class="st2" d="M811.4,753.7c-3,0-5.9-0.6-8.4-1.7s-4.8-2.7-6.7-4.7c-1.9-2-3.4-4.3-4.4-7.1c-1.1-2.7-1.6-5.7-1.6-8.8
		c0-3.2,0.5-6.1,1.6-8.8c1.1-2.6,2.5-4.9,4.4-6.8c1.9-1.9,4.1-3.3,6.7-4.3c2.6-1,5.4-1.5,8.4-1.5h23.6v7.6h-23.6c-2,0-3.8,0.4-5.4,1
		c-1.7,0.7-3.1,1.7-4.3,2.9c-1.2,1.2-2.1,2.7-2.8,4.4c-0.7,1.7-1,3.6-1,5.7c0,2,0.3,3.9,1,5.7c0.7,1.8,1.6,3.3,2.8,4.5
		s2.6,2.3,4.3,3c1.7,0.7,3.5,1.1,5.4,1.1h23.6v7.6H811.4z"/>
	<path class="st2" d="M861.2,753.7c-3,0-5.9-0.6-8.4-1.7s-4.8-2.7-6.7-4.7c-1.9-2-3.4-4.3-4.4-7.1c-1.1-2.7-1.6-5.7-1.6-8.8
		c0-3.2,0.5-6.1,1.6-8.8c1.1-2.6,2.5-4.9,4.4-6.8c1.9-1.9,4.1-3.3,6.7-4.3c2.6-1,5.4-1.5,8.4-1.5h10.6c3.2,0,6,0.5,8.7,1.6
		c2.6,1,4.9,2.5,6.8,4.4c1.9,1.9,3.3,4.1,4.4,6.8c1,2.6,1.6,5.5,1.6,8.7c0,3.2-0.5,6.1-1.6,8.8c-1.1,2.7-2.5,5.1-4.4,7.1
		c-1.9,2-4.2,3.5-6.8,4.7c-2.6,1.1-5.5,1.7-8.6,1.7H861.2z M871.8,746.1c2,0,3.8-0.4,5.5-1.1c1.7-0.7,3.1-1.7,4.4-3
		c1.2-1.3,2.2-2.8,2.9-4.5c0.7-1.8,1-3.7,1-5.7s-0.3-3.9-1-5.7c-0.7-1.7-1.6-3.2-2.9-4.5c-1.2-1.2-2.7-2.2-4.4-2.9
		c-1.7-0.7-3.5-1-5.5-1h-10.6c-2,0-3.8,0.4-5.4,1c-1.7,0.7-3.1,1.7-4.3,2.9c-1.2,1.2-2.1,2.7-2.8,4.4c-0.7,1.7-1,3.6-1,5.7
		c0,2,0.3,3.9,1,5.7c0.7,1.8,1.6,3.3,2.8,4.5s2.6,2.3,4.3,3c1.7,0.7,3.5,1.1,5.4,1.1H871.8z"/>
	<path class="st2" d="M906.4,721.8v31.9h-7.3v-39.6c0-1.4,0.3-2.5,1-3.3c0.7-0.8,1.6-1.2,2.9-1.2c0.6,0,1.1,0.1,1.6,0.4
		c0.5,0.2,1.1,0.6,1.6,1.2l30.8,30.5v-31.9h7.3v40c0,1.4-0.4,2.6-1,3.4c-0.7,0.8-1.6,1.2-2.7,1.2c-1.2,0-2.4-0.5-3.5-1.6
		L906.4,721.8z"/>
	<path class="st2" d="M951.7,753.7v-43.6h38.9v7.6h-31.4v28.4h31.4v7.6H951.7z M964.8,734.8v-6.4H989v6.4H964.8z"/>
	<path class="st2" d="M1017.2,753.7c-3,0-5.9-0.6-8.4-1.7c-2.6-1.1-4.8-2.7-6.7-4.7c-1.9-2-3.4-4.3-4.4-7.1
		c-1.1-2.7-1.6-5.7-1.6-8.8c0-3.2,0.5-6.1,1.6-8.8c1.1-2.6,2.5-4.9,4.4-6.8c1.9-1.9,4.1-3.3,6.7-4.3c2.6-1,5.4-1.5,8.4-1.5h23.6v7.6
		h-23.6c-2,0-3.8,0.4-5.4,1c-1.7,0.7-3.1,1.7-4.3,2.9c-1.2,1.2-2.1,2.7-2.8,4.4c-0.7,1.7-1,3.6-1,5.7c0,2,0.3,3.9,1,5.7
		c0.7,1.8,1.6,3.3,2.8,4.5c1.2,1.3,2.6,2.3,4.3,3s3.5,1.1,5.4,1.1h23.6v7.6H1017.2z"/>
	<path class="st2" d="M1061,753.7v-36h-16.6v-7.6h40.7v7.6h-16.6v36H1061z"/>
	<path class="st2" d="M1127.4,753.7l-6.5-11h-20.6l3.6-6.2h13.4l-9.7-16.3l-19.8,33.5h-8.7l25.1-41.8c0.4-0.8,1-1.4,1.6-1.8
		c0.6-0.4,1.3-0.7,2.2-0.7c0.8,0,1.5,0.2,2.1,0.7s1.1,1,1.5,1.8l25.1,41.8H1127.4z"/>
	<path class="st2" d="M1148.4,721.8v31.9h-7.3v-39.6c0-1.4,0.3-2.5,1.1-3.3c0.7-0.8,1.6-1.2,2.8-1.2c0.6,0,1.1,0.1,1.6,0.4
		c0.5,0.2,1.1,0.6,1.6,1.2l30.8,30.5v-31.9h7.3v40c0,1.4-0.4,2.6-1,3.4c-0.7,0.8-1.6,1.2-2.7,1.2c-1.2,0-2.4-0.5-3.5-1.6
		L1148.4,721.8z"/>
	<path class="st2" d="M1193.7,753.7v-43.6h25.3c3.1,0,5.9,0.5,8.5,1.6s4.8,2.5,6.7,4.4c1.9,1.9,3.3,4.1,4.4,6.8
		c1.1,2.6,1.6,5.5,1.6,8.7c0,3.2-0.5,6.1-1.6,8.8c-1.1,2.7-2.5,5.1-4.4,7.1c-1.9,2-4.1,3.5-6.7,4.7s-5.4,1.7-8.5,1.7H1193.7z
		 M1218.9,746.1c2,0,3.8-0.4,5.4-1.1c1.7-0.7,3.1-1.7,4.3-3c1.2-1.3,2.2-2.8,2.8-4.5c0.7-1.8,1-3.7,1-5.7s-0.3-3.9-1-5.7
		c-0.7-1.7-1.6-3.2-2.8-4.5c-1.2-1.2-2.7-2.2-4.3-2.9c-1.7-0.7-3.5-1-5.4-1h-17.7v28.4H1218.9z"/>
	<path class="st2" d="M1266.3,753.7c-3,0-5.9-0.6-8.4-1.7c-2.6-1.1-4.8-2.7-6.7-4.7c-1.9-2-3.4-4.3-4.4-7.1
		c-1.1-2.7-1.6-5.7-1.6-8.8c0-3.2,0.5-6.1,1.6-8.8c1.1-2.6,2.5-4.9,4.4-6.8c1.9-1.9,4.1-3.3,6.7-4.3c2.6-1,5.4-1.5,8.4-1.5h10.6
		c3.2,0,6,0.5,8.7,1.6c2.6,1,4.9,2.5,6.8,4.4c1.9,1.9,3.3,4.1,4.4,6.8c1,2.6,1.6,5.5,1.6,8.7c0,3.2-0.5,6.1-1.6,8.8
		c-1.1,2.7-2.5,5.1-4.4,7.1c-1.9,2-4.2,3.5-6.8,4.7c-2.6,1.1-5.5,1.7-8.6,1.7H1266.3z M1277,746.1c2,0,3.8-0.4,5.5-1.1
		s3.1-1.7,4.4-3c1.2-1.3,2.2-2.8,2.8-4.5c0.7-1.8,1-3.7,1-5.7s-0.3-3.9-1-5.7c-0.7-1.7-1.6-3.2-2.8-4.5c-1.2-1.2-2.7-2.2-4.4-2.9
		c-1.7-0.7-3.5-1-5.5-1h-10.6c-2,0-3.8,0.4-5.4,1c-1.7,0.7-3.1,1.7-4.3,2.9c-1.2,1.2-2.1,2.7-2.8,4.4c-0.7,1.7-1,3.6-1,5.7
		c0,2,0.3,3.9,1,5.7c0.7,1.8,1.6,3.3,2.8,4.5c1.2,1.3,2.6,2.3,4.3,3s3.5,1.1,5.4,1.1H1277z"/>
	<path class="st2" d="M1376.4,753.7l-8.3-30.7l-12.4,28.4c-0.4,0.9-1,1.6-1.6,2.1c-0.6,0.5-1.4,0.8-2.3,0.8c-1.8,0-3.1-1-3.9-2.9
		l-12.3-28.4l-8.3,30.7h-7.5l11.2-41c0.5-2.1,1.8-3.1,3.8-3.1c0.8,0,1.5,0.2,2.3,0.7c0.7,0.4,1.2,1.1,1.6,1.9l13.4,30.8l13.4-30.8
		c0.7-1.7,1.9-2.6,3.7-2.6c1.8,0,3.1,1,3.7,3.1l11.2,41H1376.4z"/>
	<path class="st2" d="M1425.7,710.1h7.4v24.4c0,3.4-0.4,6.3-1.3,8.8c-0.9,2.5-2.3,4.6-4.1,6.2c-1.9,1.6-4.3,2.9-7.3,3.7
		c-3,0.8-6.6,1.2-10.8,1.2c-4.2,0-7.8-0.4-10.8-1.2c-3-0.8-5.4-2-7.3-3.7c-1.9-1.6-3.3-3.7-4.1-6.2c-0.9-2.5-1.3-5.4-1.3-8.8v-24.4
		h7.9v24.4c0,2.2,0.3,4.1,0.8,5.6c0.5,1.6,1.4,2.8,2.6,3.8c1.2,1,2.9,1.7,4.9,2.2s4.6,0.7,7.6,0.7s5.5-0.2,7.6-0.7s3.7-1.2,4.9-2.2
		c1.2-1,2.1-2.3,2.6-3.8c0.5-1.6,0.8-3.4,0.8-5.6V710.1z"/>
	<path class="st2" d="M1447.1,721.8v31.9h-7.3v-39.6c0-1.4,0.3-2.5,1.1-3.3c0.7-0.8,1.6-1.2,2.8-1.2c0.6,0,1.1,0.1,1.6,0.4
		c0.5,0.2,1.1,0.6,1.6,1.2l30.8,30.5v-31.9h7.3v40c0,1.4-0.4,2.6-1,3.4c-0.7,0.8-1.6,1.2-2.7,1.2c-1.2,0-2.4-0.5-3.5-1.6
		L1447.1,721.8z"/>
	<path class="st2" d="M1492.4,753.7v-43.6h25.3c3.1,0,5.9,0.5,8.5,1.6s4.8,2.5,6.7,4.4c1.9,1.9,3.3,4.1,4.4,6.8
		c1.1,2.6,1.6,5.5,1.6,8.7c0,3.2-0.5,6.1-1.6,8.8c-1.1,2.7-2.5,5.1-4.4,7.1c-1.9,2-4.1,3.5-6.7,4.7s-5.4,1.7-8.5,1.7H1492.4z
		 M1517.7,746.1c2,0,3.8-0.4,5.4-1.1c1.7-0.7,3.1-1.7,4.3-3c1.2-1.3,2.2-2.8,2.8-4.5c0.7-1.8,1-3.7,1-5.7s-0.3-3.9-1-5.7
		c-0.7-1.7-1.6-3.2-2.8-4.5c-1.2-1.2-2.7-2.2-4.3-2.9c-1.7-0.7-3.5-1-5.4-1H1500v28.4H1517.7z"/>
	<path class="st2" d="M1565.1,753.7c-3,0-5.9-0.6-8.4-1.7c-2.6-1.1-4.8-2.7-6.7-4.7c-1.9-2-3.4-4.3-4.4-7.1
		c-1.1-2.7-1.6-5.7-1.6-8.8c0-3.2,0.5-6.1,1.6-8.8c1.1-2.6,2.5-4.9,4.4-6.8c1.9-1.9,4.1-3.3,6.7-4.3c2.6-1,5.4-1.5,8.4-1.5h10.6
		c3.2,0,6,0.5,8.7,1.6c2.6,1,4.9,2.5,6.8,4.4c1.9,1.9,3.3,4.1,4.4,6.8c1,2.6,1.6,5.5,1.6,8.7c0,3.2-0.5,6.1-1.6,8.8
		c-1.1,2.7-2.5,5.1-4.4,7.1c-1.9,2-4.2,3.5-6.8,4.7c-2.6,1.1-5.5,1.7-8.6,1.7H1565.1z M1575.7,746.1c2,0,3.8-0.4,5.5-1.1
		s3.1-1.7,4.4-3c1.2-1.3,2.2-2.8,2.8-4.5c0.7-1.8,1-3.7,1-5.7s-0.3-3.9-1-5.7c-0.7-1.7-1.6-3.2-2.8-4.5c-1.2-1.2-2.7-2.2-4.4-2.9
		c-1.7-0.7-3.5-1-5.5-1h-10.6c-2,0-3.8,0.4-5.4,1c-1.7,0.7-3.1,1.7-4.3,2.9c-1.2,1.2-2.1,2.7-2.8,4.4c-0.7,1.7-1,3.6-1,5.7
		c0,2,0.3,3.9,1,5.7c0.7,1.8,1.6,3.3,2.8,4.5c1.2,1.3,2.6,2.3,4.3,3s3.5,1.1,5.4,1.1H1575.7z"/>
	<path class="st2" d="M1603.2,753.7v-7.6h32.7c2,0,3.6-0.5,4.7-1.6c1.1-1,1.6-2.4,1.6-4.1c0-1.9-0.5-3.3-1.6-4.2
		c-1.1-0.9-2.7-1.4-4.7-1.4h-20c-2,0-3.9-0.3-5.6-0.9s-3.1-1.5-4.2-2.6c-1.1-1.1-2-2.4-2.6-3.9c-0.6-1.5-0.9-3.2-0.9-5
		c0-1.8,0.3-3.4,0.9-4.9c0.6-1.5,1.4-2.8,2.6-3.9c1.1-1.1,2.5-1.9,4.2-2.6c1.7-0.6,3.6-0.9,5.8-0.9h31.3v7.6H1616
		c-1.8,0-3.1,0.5-4.1,1.4c-1,0.9-1.4,2.3-1.4,3.9s0.5,3,1.5,3.9c1,0.9,2.3,1.4,4,1.4h20c4.4,0,7.8,1,10.1,3.1
		c2.3,2.1,3.5,5.2,3.5,9.5c0,1.8-0.3,3.5-0.8,5.1c-0.6,1.6-1.4,2.9-2.5,4s-2.5,2-4.2,2.7c-1.7,0.6-3.7,1-6,1H1603.2z"/>
</g>
<polygon class="st3" points="581,355 582,645 1701,645 1701,659 570,659 569,355 "/>
<polygon class="st4" points="558,389.5 559,668.5 1728.5,668.5 1728.5,680.5 547.5,680.5 546.5,389.5 "/>
<polygon class="st5" points="481,355 481,645 214,645 214,659 493,659 493,355 "/>
<polygon class="st6" points="501.9,389.5 502.9,668.6 192.5,668.6 192.5,680.5 514.4,680.5 513.4,389.5 "/>
<polygon class="st7" points="536.5,716.5 536.8,420.6 525.3,420.6 525.5,716.5 "/>
<g>
	<defs>
		<rect id="SVGID_3_" width="1920" height="1080"/>
	</defs>
	<clipPath id="SVGID_4_">
		<use xlink:href="#SVGID_3_"  style="overflow:visible;"/>
	</clipPath>
	<circle class="st8" cx="531.3" cy="735.8" r="17.8"/>
</g>
</svg>
