<svg id="visual" viewBox="0 0 900 600" width="900" height="600" xmlns="http://www.w3.org/2000/svg" xmlns:xlink="http://www.w3.org/1999/xlink" version="1.1"><rect x="0" y="0" width="900" height="600" fill="#2a27b9"></rect><path d="M0 39L25 46.2C50 53.3 100 67.7 150 71.3C200 75 250 68 300 60C350 52 400 43 450 47.7C500 52.3 550 70.7 600 76.8C650 83 700 77 750 67.7C800 58.3 850 45.7 875 39.3L900 33L900 0L875 0C850 0 800 0 750 0C700 0 650 0 600 0C550 0 500 0 450 0C400 0 350 0 300 0C250 0 200 0 150 0C100 0 50 0 25 0L0 0Z" fill="#2735e0" stroke-linecap="round" stroke-linejoin="miter"></path></svg>