<svg id="visual" viewBox="0 0 900 600" width="900" height="600" xmlns="http://www.w3.org/2000/svg" xmlns:xlink="http://www.w3.org/1999/xlink" version="1.1"><rect x="0" y="0" width="900" height="600" fill="#2a27b9"></rect><path d="M0 569L37.5 569C75 569 150 569 225 569.3C300 569.7 375 570.3 450 570C525 569.7 600 568.3 675 568.5C750 568.7 825 570.3 862.5 571.2L900 572L900 601L862.5 601C825 601 750 601 675 601C600 601 525 601 450 601C375 601 300 601 225 601C150 601 75 601 37.5 601L0 601Z" fill="#f3f3f3" stroke-linecap="round" stroke-linejoin="miter"></path></svg>