<svg id="visual" viewBox="0 0 900 600" width="900" height="600" xmlns="http://www.w3.org/2000/svg" xmlns:xlink="http://www.w3.org/1999/xlink" version="1.1"><rect x="0" y="0" width="900" height="600" fill="#2a27b9"></rect><path d="M0 32L37.5 31.2C75 30.3 150 28.7 225 27.2C300 25.7 375 24.3 450 25.8C525 27.3 600 31.7 675 33.8C750 36 825 36 862.5 36L900 36L900 0L862.5 0C825 0 750 0 675 0C600 0 525 0 450 0C375 0 300 0 225 0C150 0 75 0 37.5 0L0 0Z" fill="#2735e0" stroke-linecap="round" stroke-linejoin="miter"></path></svg>