<svg id="visual" viewBox="0 0 960 540" width="960" height="540" xmlns="http://www.w3.org/2000/svg" xmlns:xlink="http://www.w3.org/1999/xlink" version="1.1"><rect x="0" y="0" width="960" height="540" fill="#dee5eb"></rect><path d="M0 492L40 494.3C80 496.7 160 501.3 240 499.8C320 498.3 400 490.7 480 490.8C560 491 640 499 720 498.3C800 497.7 880 488.3 920 483.7L960 479L960 541L920 541C880 541 800 541 720 541C640 541 560 541 480 541C400 541 320 541 240 541C160 541 80 541 40 541L0 541Z" fill="#2735e0" stroke-linecap="round" stroke-linejoin="miter"></path></svg>