<svg id="visual" viewBox="0 0 960 540" width="960" height="540" xmlns="http://www.w3.org/2000/svg" xmlns:xlink="http://www.w3.org/1999/xlink" version="1.1"><rect x="0" y="0" width="960" height="540" fill="#2735E0"></rect><path d="M0 472L40 472.2C80 472.3 160 472.7 240 475C320 477.3 400 481.7 480 482.7C560 483.7 640 481.3 720 479.2C800 477 880 475 920 474L960 473L960 541L920 541C880 541 800 541 720 541C640 541 560 541 480 541C400 541 320 541 240 541C160 541 80 541 40 541L0 541Z" fill="#f3f3f3" stroke-linecap="round" stroke-linejoin="miter"></path></svg>